<svg width="26" height="25" viewBox="0 0 26 25" fill="none" xmlns="http://www.w3.org/2000/svg">
<g clip-path="url(#clip0_1_694)">
<path d="M24.9116 4.40073C24.7503 4.35991 24.5748 4.364 24.4061 4.364C18.7097 4.36263 13.0133 4.36264 7.3176 4.36264C6.73524 4.36264 6.53455 4.21773 6.34882 3.6619C6.04743 2.76182 5.74741 1.86243 5.44738 0.961677C5.20927 0.245292 4.88611 0.00921806 4.13775 0.00853773C3.22067 0.00853773 2.30359 0.0296279 1.38719 0.00173445C0.714344 -0.0186754 0.236074 0.209234 0 0.861669V1.32021C0.220426 1.96516 0.677606 2.22505 1.34909 2.19103C1.85729 2.16518 2.36754 2.18559 2.87711 2.18627C3.39824 2.18627 3.61322 2.34002 3.77786 2.83394C4.83373 6.00018 5.88551 9.16779 6.94546 12.3327C7.57477 14.2111 7.60946 14.0682 7.09854 16.0316C6.98765 16.4561 6.96247 16.8854 7.05704 17.3168C7.35366 18.6747 8.46396 19.5625 9.877 19.5632C14.1467 19.5652 18.4172 19.5639 22.6869 19.5632C22.7549 19.5632 22.823 19.5632 22.8903 19.5591C23.3937 19.5292 23.8183 19.1475 23.889 18.6631C23.9666 18.1318 23.689 17.6331 23.1944 17.4698C23.0141 17.4106 22.8114 17.4018 22.6189 17.4011C18.4253 17.3977 14.2318 17.3984 10.0382 17.3984C9.93619 17.3984 9.83346 17.4032 9.73277 17.3923C9.32253 17.3474 9.0987 17.0412 9.18714 16.6405C9.23613 16.4174 9.29872 16.1969 9.35518 15.9751C9.51574 15.3452 9.6763 15.2213 10.3321 15.2213C14.076 15.2213 17.8198 15.2213 21.563 15.2213C22.2651 15.2213 22.5971 14.9791 22.8209 14.3077C23.3917 12.5966 23.9639 10.8856 24.5347 9.17391C24.9041 8.06498 25.2749 6.95672 25.6388 5.84575C25.8538 5.18855 25.5381 4.55789 24.9116 4.39937V4.40073Z" fill="#D9D9D9"/>
<path d="M8.95372 20.6717C7.85295 20.569 6.89913 21.2044 6.60455 22.2372C6.31677 23.2468 6.79096 24.3156 7.74137 24.7748C7.93595 24.8687 8.14889 24.9258 8.35299 25.0007H9.01495C9.09386 24.9755 9.1721 24.9469 9.2517 24.9258C10.2878 24.6455 10.9348 23.7053 10.8498 22.5991C10.7756 21.6289 9.92318 20.7636 8.95236 20.6724L8.95372 20.6717Z" fill="#D9D9D9"/>
<path d="M21.9938 20.6717C20.893 20.569 19.9392 21.2044 19.6446 22.2372C19.3568 23.2468 19.831 24.3156 20.7814 24.7748C20.976 24.8687 21.1889 24.9258 21.393 25.0007H22.055C22.1339 24.9755 22.2121 24.9469 22.2917 24.9258C23.3279 24.6455 23.9749 23.7053 23.8898 22.5991C23.8157 21.6289 22.9632 20.7636 21.9924 20.6724L21.9938 20.6717Z" fill="#D9D9D9"/>
</g>
<defs>
<clipPath id="clip0_1_694">
<rect width="25.7062" height="25" fill="white"/>
</clipPath>
</defs>
</svg>
