<svg width="21" height="25" viewBox="0 0 21 25" fill="none" xmlns="http://www.w3.org/2000/svg">
<g clip-path="url(#clip0_1_698)">
<path d="M9.97526 25C9.50167 24.8408 8.99937 24.7371 8.56035 24.5107C7.53749 23.9843 6.9106 23.1173 6.6164 22.0084C6.60857 21.9777 6.60922 21.9444 6.604 21.8936H14.2298C14.145 22.3652 13.963 22.7944 13.704 23.1891C13.0523 24.18 12.1423 24.7775 10.9648 24.9589C10.927 24.9647 10.8911 24.9863 10.854 25.0006H9.97526V25Z" fill="#D9D9D9"/>
<path d="M10.4105 20.8375C7.58653 20.8375 4.76323 20.8388 1.93928 20.8368C0.969264 20.8362 0.23539 20.2889 0.0462136 19.4004C-0.110346 18.6665 0.131669 18.0566 0.697894 17.5693C1.38415 16.9783 1.93276 16.2777 2.3483 15.4734C2.88125 14.442 3.12457 13.3409 3.12653 12.183C3.12849 11.1823 3.11479 10.181 3.1337 9.1803C3.19763 5.75164 5.76913 2.77114 9.14691 2.20752C9.33804 2.17556 9.38762 2.10837 9.38044 1.92897C9.3687 1.62042 9.37001 1.31056 9.38109 1.00136C9.40132 0.437741 9.85077 0.00394012 10.4059 2.61198e-05C10.9721 -0.00388788 11.4288 0.432523 11.4483 1.00853C11.4594 1.32557 11.4575 1.64325 11.4496 1.96029C11.4464 2.10576 11.4816 2.17295 11.6414 2.201C14.7726 2.75222 17.1458 5.17237 17.6253 8.31335C17.6866 8.71323 17.6925 9.12355 17.699 9.5293C17.7173 10.6272 17.6742 11.729 17.7433 12.8236C17.8595 14.6769 18.6553 16.2281 20.0298 17.4728C20.4355 17.84 20.7617 18.2393 20.8139 18.8022C20.9202 19.9458 20.1035 20.829 18.9299 20.8362C17.7009 20.8434 16.4726 20.8381 15.2436 20.8381C13.6323 20.8381 12.0211 20.8381 10.4098 20.8381L10.4105 20.8375Z" fill="#D9D9D9"/>
</g>
<defs>
<clipPath id="clip0_1_698">
<rect width="20.8238" height="25" fill="white"/>
</clipPath>
</defs>
</svg>
