<svg width="224" height="89" viewBox="0 0 224 89" fill="none" xmlns="http://www.w3.org/2000/svg">
<g clip-path="url(#clip0_1_28)">
<path d="M66.9819 44.6526C67.069 45.2593 66.8383 45.6753 66.6884 46.0977C65.3951 49.7226 64.084 53.341 62.7869 56.9646C62.2358 58.5031 61.8154 60.0787 61.4411 61.6685C61.2156 62.6297 61.1899 62.6604 60.2748 62.4544C56.1875 61.5315 52.0566 60.8467 47.9219 60.1773C45.8136 59.8356 43.7001 59.5271 41.5725 59.3287C40.4446 59.2237 39.3129 59.1866 38.2029 59.4989C36.6662 59.9315 35.7767 60.953 35.669 62.4096C35.5626 63.8431 36.3227 64.9708 37.8351 65.5826C38.6989 65.932 39.6064 66.0638 40.5369 66.0907C45.57 66.2354 50.5865 65.9986 55.5902 65.4507C57.0885 65.2869 58.5855 65.1052 60.08 64.9068C60.6157 64.8351 60.881 64.9733 60.8208 65.5583C60.3235 70.4503 61.3104 75.2297 61.9192 80.0385C62.1191 81.6167 62.2576 83.1987 62.337 84.7871C62.3678 85.3913 62.1768 85.6102 61.5539 85.5526C55.8556 85.0188 50.1726 85.5065 44.4832 85.7894C41.3879 85.943 38.2952 86.0057 35.214 85.4438C26.6754 83.8861 20.5439 77.741 19.0481 69.1882C18.2291 64.5036 18.3035 59.8522 19.6057 55.2635C20.6823 51.471 22.5817 48.1789 25.7757 45.7419C28.6492 43.5493 31.9573 42.6597 35.5152 42.5394C37.9145 42.4575 40.2767 42.8261 42.6414 43.1436C47.2478 43.7618 51.8375 44.5195 56.49 44.7601C59.7596 44.9291 63.0214 44.8587 66.2846 44.6565C66.4884 44.6437 66.6922 44.6552 66.9819 44.6552V44.6526Z" fill="white"/>
<path d="M114.85 85.6473C108.272 85.9341 101.797 86.0787 95.3641 85.9968C95.0527 85.5936 95.2808 85.2813 95.3731 84.9869C96.0127 82.953 96.6766 80.9268 97.3264 78.8955C98.808 74.2621 98.8824 69.6132 97.5315 64.9311C96.8804 62.6758 96.1254 60.4743 95.0757 58.3649C93.5275 55.2585 92.0561 52.1136 90.5642 48.979C90.313 48.4516 90.1054 47.9012 89.9029 47.3521C89.5607 46.4267 89.5786 46.3819 90.6168 46.387C95.6012 46.4088 100.587 46.3563 105.564 46.6763C113.813 47.2062 119.356 52.6179 120.167 60.8596C120.352 62.7322 120.294 64.624 120.638 66.4837C120.752 67.1045 120.89 67.7138 121.22 68.2616C121.493 68.716 121.859 69.0616 122.427 69.0181C123.014 68.9733 123.269 68.5381 123.438 68.0376C123.683 67.3119 123.707 66.5605 123.71 65.8054C123.72 62.6899 123.186 59.6411 122.535 56.6139C121.971 53.999 121.308 51.4045 120.693 48.801C120.645 48.6027 120.634 48.3953 120.611 48.2302C120.844 47.9409 121.109 48.0382 121.345 48.0625C125.973 48.5335 130.621 48.6999 135.262 48.9559C136.34 49.0148 136.365 49.0161 136.249 50.1066C135.464 57.405 135.357 64.7161 135.79 72.0388C136.027 76.0476 136.384 80.0475 136.875 84.0333C136.911 84.3239 136.937 84.6157 136.984 84.905C137.061 85.3722 136.915 85.632 136.399 85.6C136.149 85.5846 135.896 85.5974 135.645 85.5961C130.032 85.5757 124.42 85.4745 118.807 85.5885C117.754 85.6102 117.737 85.5949 117.695 84.4672C117.574 81.2046 117.601 77.942 117.69 74.6793C117.736 72.9642 117.762 71.249 117.651 69.5365C117.592 68.6162 117.496 67.692 117.089 66.8498C116.611 65.863 115.776 65.8284 115.179 66.7615C114.766 67.4066 114.577 68.1451 114.448 68.8862C113.674 73.3687 113.487 77.8652 114.239 82.3719C114.411 83.401 114.623 84.4237 114.853 85.6435L114.85 85.6473Z" fill="white"/>
<path d="M189.197 18.6783H212.995C211.732 23.633 211.278 28.6095 211.346 33.6449C211.415 38.6777 212.048 43.6465 212.963 48.5513C212.715 48.8944 212.399 48.7638 212.133 48.7485C207.2 48.4681 202.266 48.1814 197.333 47.8896C193.864 47.6835 190.394 47.4634 186.925 47.2599C185.419 47.1715 185.588 47.3866 185.501 45.9044C185.346 43.2741 185.207 40.6425 185.025 38.0147C184.93 36.6362 184.715 35.2704 184.134 33.9969C183.774 33.2059 183.25 32.5697 182.318 32.4289C181.107 32.2459 180.17 32.8488 179.755 34.1377C179.268 35.6506 179.405 37.2019 179.619 38.7379C179.955 41.1468 180.63 43.4712 181.452 45.7572C181.575 46.1002 181.822 46.4253 181.709 46.9552C174.15 46.5085 166.575 46.0605 158.912 45.6087C161.445 36.663 161.595 27.7263 159.976 18.6066C165.28 18.7909 170.56 18.2802 175.814 18.91C178.546 19.2376 181.076 20.2526 183.327 21.8744C185.647 23.546 187.295 25.6976 187.931 28.5276C188.104 29.3007 188.17 30.0968 188.291 30.8815C188.419 31.7134 188.634 32.5211 189.074 33.2455C189.719 34.3079 190.668 34.8033 191.921 34.7085C192.678 34.6509 193.146 34.2644 193.373 33.5399C193.579 32.8808 193.553 32.2241 193.454 31.5547C193.143 29.4735 192.433 27.5088 191.692 25.5542C191.026 23.7969 190.317 22.0561 189.649 20.3C189.458 19.7983 189.198 19.3093 189.196 18.6796L189.197 18.6783Z" fill="white"/>
<path d="M140.037 49.3079C140.421 49.1403 140.842 49.2439 141.247 49.2631C143.882 49.3899 146.516 49.578 149.152 49.6574C152.594 49.761 155.233 51.3367 157.3 53.9632C159.635 56.9288 160.614 60.3937 160.859 64.103C160.943 65.3574 161.057 66.6066 161.387 67.8226C161.564 68.469 161.781 69.1115 162.27 69.6005C163.016 70.3454 163.842 70.1611 164.226 69.173C164.508 68.4511 164.463 67.6895 164.435 66.9394C164.34 64.3782 163.817 61.8785 163.294 59.3812C162.72 56.6396 162.1 53.9081 161.499 51.1728C161.445 50.9284 161.359 50.6877 161.456 50.4356C161.71 50.2129 162.011 50.305 162.295 50.3204C166.687 50.5431 171.078 50.7684 175.469 50.9988C176.361 51.0461 176.383 51.0602 176.284 51.937C175.194 61.5828 175.44 71.2299 176.252 80.8769C176.365 82.2107 176.523 83.5405 176.65 84.8717C176.729 85.705 176.72 85.7306 175.896 85.7318C173.676 85.7357 171.456 85.7139 169.236 85.7062C166.305 85.696 163.373 85.687 160.441 85.6794C159.253 85.6768 159.329 85.7216 159.28 84.6157C159.142 81.4811 159.025 78.3465 158.887 75.2131C158.815 73.5824 158.685 71.9569 158.393 70.348C158.273 69.6875 158.124 69.0334 157.849 68.4216C157.602 67.8764 157.3 67.3337 156.589 67.3759C155.904 67.4169 155.612 67.9493 155.38 68.5074C155.185 68.9746 155.098 69.4674 155.031 69.9665C154.712 72.3549 154.948 74.7267 155.236 77.0959C155.556 79.7122 156.009 82.3067 156.6 84.8768C156.646 85.0765 156.65 85.2864 156.671 85.4656C156.413 85.7613 156.103 85.6602 155.829 85.6589C150.719 85.6499 145.608 85.6346 140.5 85.6128C139.414 85.609 139.403 85.5949 139.57 84.5914C140.803 77.2162 141.034 69.7848 140.874 62.329C140.788 58.3112 140.528 54.3062 140.032 50.3178C139.992 49.9991 139.859 49.6689 140.037 49.3079Z" fill="white"/>
<path d="M94.6961 71.2515C94.9589 75.4844 94.0322 79.1208 91.7906 82.3655C87.0265 89.2619 78.3777 90.4446 71.7617 86.3436C66.84 83.2934 64.0793 78.7432 63.1244 73.1024C62.3567 68.5675 63.168 64.3154 65.5775 60.3347C67.2245 57.6148 68.3755 54.6299 69.7699 51.7731C71.513 48.202 73.1972 44.6027 74.9159 41.0201C75.1505 40.5311 75.3876 40.0332 75.699 39.5929C77.096 37.6205 79.5953 37.3645 81.3846 38.9888C81.9498 39.5021 82.3817 40.1113 82.706 40.8025C86.1088 48.0752 89.6873 55.2686 92.5301 62.791C92.9877 64.0031 93.4696 65.2088 93.9899 66.3954C94.5564 67.6868 94.8461 69.0103 94.7025 70.4221C94.6641 70.7946 94.6974 71.1747 94.6974 71.2503L94.6961 71.2515ZM79.8542 86.0287C80.6527 86.0466 81.4281 85.9353 82.1946 85.6959C84.7439 84.8998 86.833 83.4112 88.5646 81.4208C89.472 80.3777 90.2038 79.1976 90.5845 77.8485C90.8703 76.8347 90.4512 75.9298 89.6412 75.6789C88.9632 75.469 88.4031 75.8133 87.9686 76.8053C87.561 77.7371 87.024 78.5652 86.3203 79.2987C84.2273 81.4797 81.919 83.1322 78.6482 82.6726C77.874 82.5639 77.287 83.1296 77.1729 83.895C77.0345 84.8191 77.5446 85.5974 78.4854 85.9071C78.9327 86.0543 79.3941 86.0261 79.8542 86.03V86.0287ZM91.9533 70.2109C91.9738 69.402 91.3907 68.6609 90.6922 68.611C90.0462 68.5649 89.4041 69.2522 89.3874 70.0061C89.372 70.7421 90.0423 71.5549 90.696 71.592C91.4253 71.6343 91.9303 71.0787 91.9533 70.2109Z" fill="white"/>
<path d="M128.433 43.7977C122.521 43.447 116.731 43.1053 110.862 42.7571C110.894 41.5603 111.206 40.5261 111.48 39.4919C112.212 36.7387 113.365 34.1417 114.509 31.5421C115.483 29.3265 116.502 27.1262 117.161 24.7864C117.651 23.0444 117.951 21.287 117.686 19.4656C117.569 18.6605 117.61 18.6336 118.434 18.6336C127.06 18.6285 135.685 18.6375 144.31 18.6157C144.899 18.6144 145.119 18.8231 145.232 19.353C145.848 22.2419 147.151 24.8632 148.468 27.4743C150.161 30.8304 151.988 34.1199 153.474 37.5771C154.417 39.7671 155.207 42.0083 155.749 44.3327C155.825 44.6591 155.908 44.9791 155.821 45.4757C154.174 45.2402 152.511 45.2505 150.85 45.1455C147.257 44.919 143.663 44.7065 140.071 44.4863C137.564 44.3327 135.057 44.183 132.551 44.0217C131.69 43.9667 131.679 43.9513 131.783 43.0489C132.038 40.8461 132.246 38.642 132.222 36.4213C132.216 35.9631 132.224 35.5087 132.074 35.0581C131.659 33.8127 130.702 33.2099 129.356 33.3801C128.259 33.5183 127.614 34.2633 127.595 35.5944C127.568 37.3953 127.828 39.1796 128.034 40.9652C128.134 41.8355 128.277 42.7021 128.432 43.799L128.433 43.7977ZM132.032 26.5272C132.011 25.6786 131.878 24.8607 131.483 24.1042C131.08 23.3311 130.43 22.9151 129.554 22.9676C128.733 23.0175 128.143 23.4668 127.841 24.2322C127.365 25.4354 127.301 26.6718 127.702 27.9044C128.032 28.9169 128.835 29.425 129.916 29.3751C130.917 29.329 131.641 28.7633 131.892 27.7649C131.992 27.3656 131.988 26.9406 132.031 26.5259L132.032 26.5272Z" fill="white"/>
<path d="M204.369 85.7718C204.018 85.983 203.632 85.8883 203.263 85.887C198.277 85.8691 193.29 85.8435 188.305 85.8192C188.179 85.8192 188.052 85.8077 187.928 85.8192C187.341 85.8742 187.074 85.7206 187.238 85.0435C187.415 84.3152 187.469 83.5562 187.583 82.8125C188.337 77.9 187.322 73.3383 184.89 69.0427C183.923 67.3327 182.973 65.6073 182.091 63.8512C180.117 59.9217 179.03 55.7336 178.566 51.3971C178.833 51.1207 179.139 51.2013 179.424 51.2141C185.116 51.4944 190.806 51.776 196.497 52.0653C197.411 52.1113 197.433 52.1331 197.326 53.1353C197.07 55.5493 196.814 57.9621 196.723 60.3889C196.683 61.4346 196.654 62.479 196.825 63.5197C196.907 64.0214 197.052 64.495 197.311 64.934C197.602 65.4281 197.98 65.8095 198.593 65.807C199.273 65.8057 199.65 65.3564 199.906 64.7996C200.263 64.0265 200.365 63.1984 200.377 62.3536C200.408 60.257 200.186 58.1745 199.987 56.092C199.889 55.0514 199.778 54.0095 199.636 52.974C199.56 52.4237 199.724 52.2189 200.295 52.2534C202.093 52.3622 203.894 52.4365 205.693 52.5273C207.785 52.6323 209.878 52.7321 211.97 52.8499C213.003 52.9075 213.009 52.9254 212.875 53.9724C212.382 57.7816 211.261 61.4077 209.586 64.8547C208.378 67.3365 207.066 69.7672 205.838 72.2388C204.753 74.4237 203.873 76.6815 203.78 79.1634C203.709 81.0129 203.953 82.8381 204.264 84.6544C204.327 85.023 204.467 85.3814 204.371 85.7667L204.369 85.7718Z" fill="white"/>
<path d="M25.7582 37.7242C22.8693 37.5476 20.1201 37.3786 17.2171 37.1994C18.1271 30.9954 17.9502 24.858 16.9287 18.6297C19.0038 18.6297 20.9647 18.6169 22.9257 18.6348C23.928 18.6438 24.929 18.5747 25.9313 18.7743C27.5885 19.1033 28.7189 20.0364 29.4059 21.5519C30.0006 22.8638 30.2364 24.2641 30.3967 25.6785C30.4671 26.3044 30.5517 26.9251 30.7799 27.5126C30.9042 27.8326 31.1054 28.1142 31.4938 28.136C31.9539 28.1616 32.1808 27.8378 32.3 27.4717C32.5204 26.7933 32.5832 26.0804 32.6319 25.3713C32.7037 24.3243 32.8767 23.2939 33.1792 22.2904C33.8636 20.0133 35.2324 18.7923 37.6113 18.686C40.4553 18.5593 43.3071 18.6476 46.1562 18.6233C46.7202 18.6182 46.7445 18.9177 46.7086 19.3426C46.6305 20.2591 46.5356 21.1768 46.5164 22.0958C46.4023 27.5562 46.8766 32.9563 48.2441 38.2605C48.2954 38.4602 48.3146 38.6688 48.3582 38.9337C47.247 39.0681 46.1742 38.9337 45.104 38.8774C42.6367 38.7469 40.1708 38.5869 37.7035 38.4346C36.3539 38.3514 36.2565 38.6854 36.518 36.9088C36.8717 34.5025 37.0627 32.0898 36.9589 29.6553C36.932 29.0217 36.841 28.4022 36.6244 27.8122C36.4654 27.3782 36.2488 26.9264 35.6964 26.9136C35.1056 26.8995 34.9505 27.3872 34.83 27.8314C34.5532 28.8451 34.4545 29.8883 34.4647 30.9353C34.4839 32.9858 34.5378 35.035 34.5711 37.0842C34.589 38.2234 34.5826 38.2374 33.4035 38.1786C31.6886 38.0928 29.975 37.9674 28.2588 37.8957C27.6308 37.8701 27.418 37.6269 27.3719 36.9908C27.1771 34.3233 27.0925 31.6431 26.6362 28.9987C26.5439 28.4611 26.4196 27.9337 26.1979 27.4346C26.0261 27.0493 25.8403 26.6307 25.3263 26.6615C24.8124 26.6922 24.6829 27.112 24.5675 27.5306C24.3176 28.4381 24.374 29.3571 24.4689 30.2735C24.6893 32.3957 25.0507 34.4948 25.557 36.5697C25.6365 36.8935 25.6736 37.2276 25.7595 37.7242H25.7582Z" fill="white"/>
<path d="M49.2988 18.7655C49.7346 18.5403 50.1588 18.6362 50.5677 18.635C58.3591 18.6286 66.1491 18.6298 73.9405 18.6298C74.1917 18.6298 74.4442 18.6401 74.6941 18.6298C75.0671 18.6119 75.2209 18.7758 75.2068 19.1495C75.1286 21.1463 75.1094 23.1468 74.8466 25.182C71.5309 24.3346 68.2242 23.8726 64.8649 23.8393C64.1958 23.8329 63.5242 23.8611 62.859 23.9238C62.4412 23.9635 62.0362 24.1183 61.7645 24.4703C61.3351 25.0271 61.5927 25.8386 62.3079 26.1048C62.8667 26.3135 63.4589 26.2648 64.0485 26.2405C66.517 26.1407 68.9752 25.8437 71.4502 25.8501C71.7437 25.8501 72.0372 25.8578 72.3294 25.8399C72.746 25.813 72.9177 25.9666 72.928 26.4082C72.9574 27.6203 73.0446 28.8312 73.0843 30.0433C73.1125 30.9034 73.0907 30.9444 72.1615 30.8727C69.9916 30.7037 67.8243 30.4913 65.6557 30.3018C64.8213 30.2289 63.9869 30.138 63.1513 30.115C62.3118 30.0919 61.917 30.385 61.8452 30.9725C61.776 31.5485 62.099 31.9479 62.8347 32.2295C63.2333 32.3818 63.646 32.4214 64.0625 32.4624C67.4641 32.799 70.8362 32.4547 74.2058 32.0464C74.4967 32.0119 74.789 31.9786 75.0735 31.912C75.549 31.8007 75.7912 31.9799 75.8323 32.456C75.8361 32.497 75.8438 32.5392 75.8515 32.5802C76.1604 34.111 76.3949 35.4998 74.5903 36.4815C73.4201 37.1176 72.8088 38.4654 72.2756 39.6955C72.0077 40.3124 71.6924 40.4788 71.0593 40.4353C68.0511 40.2305 65.0405 40.0705 62.0311 39.8888C58.3949 39.6686 54.7588 39.4318 51.1214 39.227C50.0409 39.1656 50.1627 39.131 50.2242 38.2312C50.4075 35.5599 50.5459 32.8886 50.5113 30.2071C50.46 26.3531 50.064 22.5376 49.2988 18.7681V18.7655Z" fill="white"/>
<path d="M107.191 30.9266C107.492 34.8292 107.783 38.6089 108.075 42.3899C106.8 42.3899 105.558 42.4475 104.325 42.3797C99.1392 42.093 93.9548 41.7691 88.7704 41.4556C87.8091 41.398 86.8491 41.2994 85.8866 41.2712C85.3983 41.2572 85.1086 41.092 84.9548 40.6249C84.3729 38.8611 82.8746 37.7219 81.907 36.2192C81.5622 35.6842 80.9803 35.3488 80.3625 35.1978C79.7691 35.0519 79.6884 34.7063 79.7191 34.1854C79.8153 32.5137 79.7935 30.8408 79.7486 29.1666C79.664 25.9808 79.3321 22.827 78.6925 19.7039C78.6271 19.3839 78.5925 19.0562 78.5361 18.6863C78.8258 18.6658 79.0732 18.6338 79.3192 18.6338C84.1794 18.6313 89.0395 18.6287 93.8997 18.6338C94.8686 18.6338 94.8725 18.6479 94.8699 19.5951C94.8635 22.1294 94.2252 24.5613 93.6587 27.0035C93.4306 27.9827 93.2396 28.9644 93.1358 29.964C92.9564 31.692 93.5485 32.4702 95.2455 32.7339C96.8424 32.9822 98.424 32.7454 99.9992 32.5445C102.369 32.2424 104.68 31.6587 107.192 30.9266H107.191Z" fill="white"/>
<path d="M219.156 21.6252C218.783 21.0633 218.583 20.4438 218.31 19.8639C217.525 18.1974 216.582 16.6435 215.251 15.3418C213.646 13.7713 211.759 12.9624 209.488 13.1236C209.208 13.1441 208.926 13.1262 208.657 13.1262C208.682 13.107 208.716 13.0648 208.761 13.043C211.852 11.58 213.214 8.96889 213.629 5.73058C213.749 4.79237 213.808 3.84903 213.746 2.90442C213.687 1.99309 213.592 1.08303 213.498 0.00146484C213.789 0.652966 214.021 1.16495 214.245 1.6795C214.84 3.03882 215.573 4.3175 216.52 5.46179C218.454 7.799 220.858 9.03032 223.998 8.58746C223.748 8.72825 223.5 8.87289 223.249 9.01112C221.022 10.2322 219.819 12.1944 219.249 14.5918C218.698 16.9123 218.808 19.2496 219.153 21.6264L219.156 21.6252Z" fill="white"/>
<path d="M13.0745 60.8968C12.7976 60.2939 12.5182 59.6923 12.2452 59.0882C11.4685 57.3615 10.5072 55.7475 9.2717 54.3101C6.87624 51.5223 3.92836 50.0734 0 50.6878C0.410139 50.4151 0.679293 50.2103 0.972799 50.0452C3.87838 48.4094 5.40743 45.8265 6.09185 42.6573C6.69167 39.8772 6.49942 37.0894 6.19182 34.2505C6.53275 34.5948 6.63144 35.0389 6.80959 35.437C7.84135 37.7358 9.00768 39.945 10.8008 41.769C12.8732 43.8784 15.311 45.0534 18.3281 44.8319C18.6049 44.8115 18.8843 44.8294 19.1932 44.8294C18.9933 45.1545 18.6677 45.262 18.396 45.4194C15.6391 47.0079 14.1229 49.4603 13.4333 52.4912C12.9373 54.6736 12.8643 56.879 13.0822 59.0997C13.1398 59.6808 13.1757 60.2645 13.2219 60.8468C13.1719 60.8635 13.1232 60.8788 13.0732 60.8955L13.0745 60.8968Z" fill="white"/>
</g>
<defs>
<clipPath id="clip0_1_28">
<rect width="224" height="88.7066" fill="white"/>
</clipPath>
</defs>
</svg>
