<svg width="13" height="12" viewBox="0 0 13 12" fill="none" xmlns="http://www.w3.org/2000/svg">
<path d="M6.3607 2.33984C7.45631 3.44735 8.54843 4.55101 9.65104 5.66586C9.6388 5.6788 9.60453 5.71586 9.56886 5.75188C7.73118 7.59166 5.89 9.42865 4.05791 11.2744C3.74563 11.5891 3.38928 11.757 2.95216 11.7968C2.3706 11.85 1.7894 11.914 1.21029 11.9906C0.505992 12.0836 -0.0755621 11.5531 0.00801667 10.8397C0.0846014 10.1858 0.159088 9.53146 0.233924 8.87752C0.271692 8.5474 0.419266 8.27568 0.653566 8.04243C1.44844 7.25141 2.24016 6.45723 3.03294 5.66411C4.10967 4.58703 5.1864 3.5103 6.26313 2.43356C6.29356 2.40314 6.32538 2.37411 6.36035 2.34054L6.3607 2.33984Z" fill="#766D6D"/>
<path d="M6.97559 1.72531C6.99412 1.70503 7.0221 1.67285 7.05217 1.64278C7.45608 1.23852 7.85998 0.833919 8.26459 0.430013C8.836 -0.140001 9.62633 -0.144197 10.1981 0.422669C10.666 0.886374 11.1321 1.35183 11.5955 1.82043C12.1505 2.3817 12.148 3.17517 11.5916 3.73609C11.18 4.15119 10.7653 4.56349 10.352 4.97649C10.3278 5.00062 10.3016 5.0223 10.2862 5.03628C9.18116 3.93088 8.08169 2.83107 6.97594 1.72496L6.97559 1.72531Z" fill="#766D6D"/>
</svg>
