<svg width="14" height="17" viewBox="0 0 14 17" fill="none" xmlns="http://www.w3.org/2000/svg">
<mask id="path-1-inside-1_1_1709" fill="white">
<path d="M5.25 0L4.375 0.85H0V2.55H0.875V15.3C0.875 15.7439 1.04241 16.1964 1.37231 16.5169C1.70222 16.8374 2.16806 17 2.625 17H11.375C11.8319 17 12.2978 16.8374 12.6277 16.5169C12.9576 16.1964 13.125 15.7439 13.125 15.3V2.55H14V0.85H9.625L8.75 0H5.25ZM2.625 2.55H11.375V15.3H2.625V2.55ZM4.375 4.25V13.6H6.125V4.25H4.375ZM7.875 4.25V13.6H9.625V4.25H7.875Z"/>
</mask>
<path d="M5.25 0V-3H4.03275L3.15964 -2.15184L5.25 0ZM4.375 0.85V3.85H5.59225L6.46536 3.00184L4.375 0.85ZM0 0.85V-2.15H-3V0.85H0ZM0 2.55H-3V5.55H0V2.55ZM0.875 2.55H3.875V-0.45H0.875V2.55ZM1.37231 16.5169L-0.718044 18.6687L-0.718041 18.6687L1.37231 16.5169ZM12.6277 16.5169L14.718 18.6687L14.718 18.6687L12.6277 16.5169ZM13.125 2.55V-0.45H10.125V2.55H13.125ZM14 2.55V5.55H17V2.55H14ZM14 0.85H17V-2.15H14V0.85ZM9.625 0.85L7.53464 3.00184L8.40775 3.85H9.625V0.85ZM8.75 0L10.8404 -2.15184L9.96725 -3H8.75V0ZM2.625 2.55V-0.45H-0.375V2.55H2.625ZM11.375 2.55H14.375V-0.45H11.375V2.55ZM11.375 15.3V18.3H14.375V15.3H11.375ZM2.625 15.3H-0.375V18.3H2.625V15.3ZM4.375 4.25V1.25H1.375V4.25H4.375ZM4.375 13.6H1.375V16.6H4.375V13.6ZM6.125 13.6V16.6H9.125V13.6H6.125ZM6.125 4.25H9.125V1.25H6.125V4.25ZM7.875 4.25V1.25H4.875V4.25H7.875ZM7.875 13.6H4.875V16.6H7.875V13.6ZM9.625 13.6V16.6H12.625V13.6H9.625ZM9.625 4.25H12.625V1.25H9.625V4.25ZM3.15964 -2.15184L2.28464 -1.30184L6.46536 3.00184L7.34036 2.15184L3.15964 -2.15184ZM4.375 -2.15H0V3.85H4.375V-2.15ZM-3 0.85V2.55H3V0.85H-3ZM0 5.55H0.875V-0.45H0V5.55ZM-2.125 2.55V15.3H3.875V2.55H-2.125ZM-2.125 15.3C-2.125 16.4611 -1.69328 17.7214 -0.718044 18.6687L3.46267 14.3651C3.7781 14.6715 3.875 15.0267 3.875 15.3H-2.125ZM-0.718041 18.6687C0.249753 19.6089 1.50339 20 2.625 20V14C2.83272 14 3.15468 14.0659 3.46267 14.3651L-0.718041 18.6687ZM2.625 20H11.375V14H2.625V20ZM11.375 20C12.4966 20 13.7502 19.6089 14.718 18.6687L10.5373 14.3651C10.8453 14.0659 11.1673 14 11.375 14V20ZM14.718 18.6687C15.6933 17.7214 16.125 16.4611 16.125 15.3H10.125C10.125 15.0267 10.2219 14.6715 10.5373 14.3651L14.718 18.6687ZM16.125 15.3V2.55H10.125V15.3H16.125ZM13.125 5.55H14V-0.45H13.125V5.55ZM17 2.55V0.85H11V2.55H17ZM14 -2.15H9.625V3.85H14V-2.15ZM11.7154 -1.30184L10.8404 -2.15184L6.65964 2.15184L7.53464 3.00184L11.7154 -1.30184ZM8.75 -3H5.25V3H8.75V-3ZM2.625 5.55H11.375V-0.45H2.625V5.55ZM8.375 2.55V15.3H14.375V2.55H8.375ZM11.375 12.3H2.625V18.3H11.375V12.3ZM5.625 15.3V2.55H-0.375V15.3H5.625ZM1.375 4.25V13.6H7.375V4.25H1.375ZM4.375 16.6H6.125V10.6H4.375V16.6ZM9.125 13.6V4.25H3.125V13.6H9.125ZM6.125 1.25H4.375V7.25H6.125V1.25ZM4.875 4.25V13.6H10.875V4.25H4.875ZM7.875 16.6H9.625V10.6H7.875V16.6ZM12.625 13.6V4.25H6.625V13.6H12.625ZM9.625 1.25H7.875V7.25H9.625V1.25Z" fill="#D9D9D9" mask="url(#path-1-inside-1_1_1709)"/>
</svg>
