<svg width="25" height="25" viewBox="0 0 25 25" fill="none" xmlns="http://www.w3.org/2000/svg">
<g clip-path="url(#clip0_1_702)">
<path d="M11.7689 0C12.257 0 12.7451 0 13.2332 0C13.2959 0.0135584 13.3577 0.0364382 13.4213 0.0406752C14.9457 0.144058 16.41 0.503356 17.7802 1.17534C21.6272 3.06166 23.9787 6.1123 24.8023 10.3239C24.8955 10.7993 24.9354 11.2857 24.9998 11.7662V13.2305C24.9854 13.3008 24.9633 13.3703 24.9582 13.4406C24.854 14.9668 24.499 16.4353 23.8126 17.7979C21.5832 22.2315 17.9784 24.6568 13.0239 24.9737C10.5614 25.1313 8.23368 24.5373 6.1288 23.2391C2.33597 20.9003 0.284484 17.4776 0.0209513 13.0262C-0.112933 10.762 0.381084 8.60365 1.47928 6.61735C3.42569 3.09725 6.38556 0.944004 10.347 0.194902C10.8165 0.105925 11.2944 0.063555 11.7681 0H11.7689ZM12.5061 14.0177C11.7172 14.0177 10.9283 14.0109 10.1394 14.0185C7.91422 14.0406 6.1949 15.5735 5.92713 17.7742C5.84409 18.4598 5.99661 19.0767 6.54317 19.5368C8.02268 20.7791 9.7242 21.5113 11.6511 21.6833C13.8907 21.8841 15.9405 21.3325 17.7844 20.0478C18.1403 19.7995 18.4877 19.5114 18.7606 19.1775C19.1724 18.6733 19.13 18.0547 19.0207 17.4497C18.6589 15.4456 16.965 14.0423 14.8728 14.0185C14.0839 14.0092 13.295 14.0168 12.5061 14.0168V14.0177ZM16.6379 7.86472C16.6277 5.58437 14.7788 3.74297 12.501 3.74297C10.2225 3.74297 8.37349 5.58776 8.36671 7.86642C8.35993 10.1408 10.2419 12.0187 12.5154 12.0068C14.7889 11.995 16.6489 10.1264 16.6379 7.86472Z" fill="#D9D9D9"/>
</g>
<defs>
<clipPath id="clip0_1_702">
<rect width="25" height="25" fill="white"/>
</clipPath>
</defs>
</svg>
